<svg width="30" height="26" viewBox="0 0 35 35" fill="none" xmlns="http://www.w3.org/2000/svg">
<path d="M17.4998 2.91666C9.44984 2.91666 2.9165 9.44999 2.9165 17.5C2.9165 25.55 9.44984 32.0833 17.4998 32.0833C25.5498 32.0833 32.0832 25.55 32.0832 17.5C32.0832 9.44999 25.5498 2.91666 17.4998 2.91666ZM5.83317 17.5C5.83317 14.8021 6.75192 12.3375 8.29775 10.3542L11.0686 13.125H15.1957L10.354 8.29791C12.3923 6.69854 14.909 5.83055 17.4998 5.83332C23.9311 5.83332 29.1665 11.0687 29.1665 17.5C29.1665 20.1979 28.2478 22.6625 26.7019 24.6458L23.9311 21.875H19.804L24.6311 26.7021C22.5995 28.3034 20.0867 29.1718 17.4998 29.1667C11.0686 29.1667 5.83317 23.9312 5.83317 17.5Z" fill="#F4FBFF"/>
<path d="M20.7811 20.4167L18.5936 17.5L20.7811 14.5833H18.5936L17.4998 16.0417L16.4061 14.5833H14.2186L16.4061 17.5L14.2186 20.4167H16.4061L17.4998 18.9583L18.5936 20.4167H20.7811ZM11.6665 14.5833L10.5728 16.0417L9.479 14.5833H7.2915L9.479 17.5L7.2915 20.4167H9.479L10.5728 18.9583L11.6665 20.4167H13.854L11.6665 17.5L13.854 14.5833H11.6665ZM23.3332 20.4167L24.4269 18.9583L25.5207 20.4167H27.7082L25.5207 17.5L27.7082 14.5833H25.5207L24.4269 16.0417L23.3332 14.5833H21.1457L23.3332 17.5L21.1457 20.4167H23.3332Z" fill="#F4FBFF"/>
</svg>
