<svg width="20" height="24" viewBox="0 0 20 16" fill="none" xmlns="http://www.w3.org/2000/svg">
<g clip-path="url(#clip0_11_155)">
<path d="M4.6875 9.375C4.6875 8.94531 4.53451 8.57747 4.22852 8.27148C3.92253 7.96549 3.55469 7.8125 3.125 7.8125C2.69531 7.8125 2.32747 7.96549 2.02148 8.27148C1.71549 8.57747 1.5625 8.94531 1.5625 9.375C1.5625 9.80469 1.71549 10.1725 2.02148 10.4785C2.32747 10.7845 2.69531 10.9375 3.125 10.9375C3.55469 10.9375 3.92253 10.7845 4.22852 10.4785C4.53451 10.1725 4.6875 9.80469 4.6875 9.375ZM5.03906 6.25H14.9609L14.0918 2.76367C14.0788 2.71159 14.0332 2.65462 13.9551 2.59277C13.877 2.53092 13.8086 2.5 13.75 2.5H6.25C6.19141 2.5 6.12305 2.53092 6.04492 2.59277C5.9668 2.65462 5.92122 2.71159 5.9082 2.76367L5.03906 6.25ZM18.4375 9.375C18.4375 8.94531 18.2845 8.57747 17.9785 8.27148C17.6725 7.96549 17.3047 7.8125 16.875 7.8125C16.4453 7.8125 16.0775 7.96549 15.7715 8.27148C15.4655 8.57747 15.3125 8.94531 15.3125 9.375C15.3125 9.80469 15.4655 10.1725 15.7715 10.4785C16.0775 10.7845 16.4453 10.9375 16.875 10.9375C17.3047 10.9375 17.6725 10.7845 17.9785 10.4785C18.2845 10.1725 18.4375 9.80469 18.4375 9.375ZM20 8.4375V12.1875C20 12.2786 19.9707 12.3535 19.9121 12.4121C19.8535 12.4707 19.7786 12.5 19.6875 12.5H18.75V13.75C18.75 14.2708 18.5677 14.7135 18.2031 15.0781C17.8385 15.4427 17.3958 15.625 16.875 15.625C16.3542 15.625 15.9115 15.4427 15.5469 15.0781C15.1823 14.7135 15 14.2708 15 13.75V12.5H5V13.75C5 14.2708 4.81771 14.7135 4.45312 15.0781C4.08854 15.4427 3.64583 15.625 3.125 15.625C2.60417 15.625 2.16146 15.4427 1.79688 15.0781C1.43229 14.7135 1.25 14.2708 1.25 13.75V12.5H0.3125C0.221354 12.5 0.146484 12.4707 0.0878906 12.4121C0.0292969 12.3535 0 12.2786 0 12.1875V8.4375C0 7.83203 0.213216 7.31608 0.639648 6.88965C1.06608 6.46322 1.58203 6.25 2.1875 6.25H2.46094L3.48633 2.1582C3.63607 1.54622 3.97461 1.03353 4.50195 0.620117C5.0293 0.206706 5.61198 0 6.25 0H13.75C14.388 0 14.9707 0.206706 15.498 0.620117C16.0254 1.03353 16.3639 1.54622 16.5137 2.1582L17.5391 6.25H17.8125C18.418 6.25 18.9339 6.46322 19.3604 6.88965C19.7868 7.31608 20 7.83203 20 8.4375Z" fill="#D0F7FF"/>
</g>
<defs>
<clipPath id="clip0_11_155">
<rect width="20" height="15.625" fill="white"/>
</clipPath>
</defs>
</svg>
